<svg width="25" height="25" viewBox="0 0 25 25" version="1.1" xmlns="http://www.w3.org/2000/svg" xmlns:xlink="http://www.w3.org/1999/xlink">
<title>Delete</title>
<desc>Created using Figma</desc>
<g id="Canvas" transform="translate(-4171 4511)">
<g id="Delete">
<g id="Vector">
<use xlink:href="#path0_stroke" transform="matrix(0.707107 -0.707107 0.707107 0.707107 4181 -4496.05)" fill="#789CA8"/>
</g>
<g id="Vector">
<use xlink:href="#path1_stroke" transform="matrix(0.707107 -0.707107 0.707107 0.707107 4181 -4501)" fill="#789CA8"/>
</g>
<g id="Vector">
<use xlink:href="#path2_stroke" transform="translate(4172 -4510)" fill="#789CA8"/>
</g>
</g>
</g>
<defs>
<path id="path0_stroke" d="M 0 0.5L 7 0.5L 7 -0.5L 0 -0.5L 0 0.5Z"/>
<path id="path1_stroke" d="M 0.5 7L 0.5 0L -0.5 0L -0.5 7L 0.5 7Z"/>
<path id="path2_stroke" d="M 22.5 11.5C 22.5 17.5751 17.5751 22.5 11.5 22.5L 11.5 23.5C 18.1274 23.5 23.5 18.1274 23.5 11.5L 22.5 11.5ZM 11.5 22.5C 5.42487 22.5 0.5 17.5751 0.5 11.5L -0.5 11.5C -0.5 18.1274 4.87258 23.5 11.5 23.5L 11.5 22.5ZM 0.5 11.5C 0.5 5.42487 5.42487 0.5 11.5 0.5L 11.5 -0.5C 4.87258 -0.5 -0.5 4.87258 -0.5 11.5L 0.5 11.5ZM 11.5 0.5C 17.5751 0.5 22.5 5.42487 22.5 11.5L 23.5 11.5C 23.5 4.87258 18.1274 -0.5 11.5 -0.5L 11.5 0.5Z"/>
</defs>
</svg>
