<?xml version="1.0" encoding="UTF-8"?>
<svg width="22px" height="22px" viewBox="0 0 22 22" version="1.1" xmlns="http://www.w3.org/2000/svg" xmlns:xlink="http://www.w3.org/1999/xlink">
    <!-- Generator: Sketch 50 (54983) - http://www.bohemiancoding.com/sketch -->
    <title>-g-ic-checkbox</title>
    <desc>Created with Sketch.</desc>
    <defs></defs>
    <g id="Symbols" stroke="none" stroke-width="1" fill="none" fill-rule="evenodd">
        <g id="Icon/Box-Empty" transform="translate(-1.000000, -1.000000)">
            <g id="-g-ic-checkbox">
                <rect id="bound" x="0" y="0" width="24" height="24"></rect>
                <g id="Group" transform="translate(1.000000, 1.000000)" fill="#789CA8" fill-rule="nonzero">
                    <path d="M21.1698113,0.886792453 L21.1698113,20.1698113 C21.1698113,20.7220961 20.7220961,21.1698113 20.1698113,21.1698113 L1.83018868,21.1698113 C1.27790393,21.1698113 0.830188679,20.7220961 0.830188679,20.1698113 L0.830188679,1.83018868 C0.830188679,1.27790393 1.27790393,0.830188679 1.83018868,0.830188679 L20.754717,0.830188679 C20.9839673,0.830188679 21.1698113,1.01603275 21.1698113,1.24528302 C21.1698113,1.47483019 21.3553585,1.66037736 21.5849057,1.66037736 C21.8144528,1.66037736 22,1.47483019 22,1.24528302 L22,1 C22,0.44771525 21.5522847,-1.01453063e-16 21,0 L1,0 C0.44771525,1.01453063e-16 -6.76353751e-17,0.44771525 0,1 L0,21 C6.76353751e-17,21.5522847 0.44771525,22 1,22 L21,22 C21.5522847,22 22,21.5522847 22,21 L22,0.886792453 L21.1698113,0.886792453 Z" id="Shape"></path>
                </g>
            </g>
        </g>
    </g>
</svg>