<?xml version="1.0" encoding="UTF-8"?>
<svg width="24px" height="24px" viewBox="0 0 24 24" version="1.1" xmlns="http://www.w3.org/2000/svg" xmlns:xlink="http://www.w3.org/1999/xlink">
    <!-- Generator: Sketch 51 (57462) - http://www.bohemiancoding.com/sketch -->
    <title>Icon/Calendar</title>
    <desc>Created with Sketch.</desc>
    <defs></defs>
    <g id="Icon/Calendar" stroke="none" stroke-width="1" fill="none" fill-rule="evenodd">
        <g id="-g-ic-calendar">
            <rect id="bound" x="0" y="0" width="24" height="24"></rect>
            <path d="M21.8869565,2.46666667 L19.3304347,2.46666667 L19.3304347,1.36666667 C19.3304347,1.1639 19.1671826,1 18.9652173,1 L16.4086956,1 C16.2067304,1 16.0434782,1.1639 16.0434782,1.36666667 L16.0434782,2.46666667 L8.0086956,2.46666667 L8.0086956,1.36666667 C8.0086956,1.1639 7.84544343,1 7.64347821,1 L5.08695647,1 C4.88499126,1 4.72173908,1.1639 4.72173908,1.36666667 L4.72173908,2.46666667 L2.16521734,2.46666667 C1.96325213,2.46666667 1.79999995,2.63056667 1.79999995,2.83333333 L1.79999995,6.86666667 L1.79999995,22.6333333 C1.79999995,22.8361 1.96325213,23 2.16521734,23 L21.8869565,23 C22.0889217,23 22.2521739,22.8361 22.2521739,22.6333333 L22.2521739,6.86666667 L22.2521739,2.83333333 C22.2521739,2.63056667 22.0889217,2.46666667 21.8869565,2.46666667 Z M16.773913,1.73333333 L18.6,1.73333333 L18.6,2.83333333 L18.6,3.93333333 L16.773913,3.93333333 L16.773913,2.83333333 L16.773913,1.73333333 Z M5.45217387,1.73333333 L7.27826082,1.73333333 L7.27826082,2.83333333 L7.27826082,3.93333333 L5.45217387,3.93333333 L5.45217387,2.83333333 L5.45217387,1.73333333 Z M2.53043473,3.2 L4.72173908,3.2 L4.72173908,4.3 C4.72173908,4.50276667 4.88499126,4.66666667 5.08695647,4.66666667 L7.64347821,4.66666667 C7.84544343,4.66666667 8.0086956,4.50276667 8.0086956,4.3 L8.0086956,3.2 L16.0434782,3.2 L16.0434782,4.3 C16.0434782,4.50276667 16.2067304,4.66666667 16.4086956,4.66666667 L18.9652173,4.66666667 C19.1671826,4.66666667 19.3304347,4.50276667 19.3304347,4.3 L19.3304347,3.2 L21.5217391,3.2 L21.5217391,6.5 L2.53043473,6.5 L2.53043473,3.2 Z M2.53043473,22.2666667 L2.53043473,7.23333333 L21.5217391,7.23333333 L21.5217391,22.2666667 L2.53043473,22.2666667 Z M14.9508692,9.43333333 L12.3943475,9.43333333 L11.6639127,9.43333333 L9.10739098,9.43333333 L8.3769562,9.43333333 L5.08999968,9.43333333 L5.08999968,12.7333333 L5.08999968,13.4666667 L5.08999968,16.0333333 L5.08999968,16.7666667 L5.08999968,20.0666667 L8.3769562,20.0666667 L9.10739098,20.0666667 L11.6639127,20.0666667 L12.3943475,20.0666667 L14.9508692,20.0666667 L15.681304,20.0666667 L18.9682605,20.0666667 L18.9682605,16.7666667 L18.9682605,16.0333333 L18.9682605,13.4666667 L18.9682605,12.7333333 L18.9682605,9.43333333 L15.681304,9.43333333 L14.9508692,9.43333333 Z M12.3943475,10.1666667 L14.9508692,10.1666667 L14.9508692,12.7333333 L12.3943475,12.7333333 L12.3943475,10.1666667 Z M14.9508692,16.0333333 L12.3943475,16.0333333 L12.3943475,13.4666667 L14.9508692,13.4666667 L14.9508692,16.0333333 Z M9.10739098,13.4666667 L11.6639127,13.4666667 L11.6639127,16.0333333 L9.10739098,16.0333333 L9.10739098,13.4666667 Z M9.10739098,10.1666667 L11.6639127,10.1666667 L11.6639127,12.7333333 L9.10739098,12.7333333 L9.10739098,10.1666667 Z M5.82043446,10.1666667 L8.3769562,10.1666667 L8.3769562,12.7333333 L5.82043446,12.7333333 L5.82043446,10.1666667 Z M5.82043446,13.4666667 L8.3769562,13.4666667 L8.3769562,16.0333333 L5.82043446,16.0333333 L5.82043446,13.4666667 Z M8.3769562,19.3333333 L5.82043446,19.3333333 L5.82043446,16.7666667 L8.3769562,16.7666667 L8.3769562,19.3333333 Z M11.6639127,19.3333333 L9.10739098,19.3333333 L9.10739098,16.7666667 L11.6639127,16.7666667 L11.6639127,19.3333333 Z M14.9508692,19.3333333 L12.3943475,19.3333333 L12.3943475,16.7666667 L14.9508692,16.7666667 L14.9508692,19.3333333 Z M18.2378258,19.3333333 L15.681304,19.3333333 L15.681304,16.7666667 L18.2378258,16.7666667 L18.2378258,19.3333333 Z M18.2378258,16.0333333 L15.681304,16.0333333 L15.681304,13.4666667 L18.2378258,13.4666667 L18.2378258,16.0333333 Z M18.2378258,10.1666667 L18.2378258,12.7333333 L15.681304,12.7333333 L15.681304,10.1666667 L18.2378258,10.1666667 Z" id="Combined-Shape" fill="#789CA8" fill-rule="nonzero"></path>
        </g>
    </g>
</svg>