<?xml version="1.0" encoding="UTF-8"?>
<svg width="24px" height="24px" viewBox="0 0 24 24" version="1.1" xmlns="http://www.w3.org/2000/svg" xmlns:xlink="http://www.w3.org/1999/xlink">
    <!-- Generator: Sketch 49.2 (51160) - http://www.bohemiancoding.com/sketch -->
    <title>icon/ic-circle-error</title>
    <desc>Created with Sketch.</desc>
    <defs>
        <path d="M12,22 C17.5228475,22 22,17.5228475 22,12 C22,6.4771525 17.5228475,2 12,2 C6.4771525,2 2,6.4771525 2,12 C2,17.5228475 6.4771525,22 12,22 Z M12,23 C5.92486775,23 1,18.0751322 1,12 C1,5.92486775 5.92486775,1 12,1 C18.0751322,1 23,5.92486775 23,12 C23,18.0751322 18.0751322,23 12,23 Z M16.1068077,7.89319231 C15.9413846,7.72776923 15.674,7.72776923 15.5085769,7.89319231 L12,11.4017692 L8.49142308,7.89319231 C8.326,7.72776923 8.05861538,7.72776923 7.89319231,7.89319231 C7.72776923,8.05861538 7.72776923,8.326 7.89319231,8.49142308 L11.4017692,12 L7.89319231,15.5085769 C7.72776923,15.674 7.72776923,15.9413846 7.89319231,16.1068077 C7.97569231,16.1893077 8.084,16.2307692 8.19230769,16.2307692 C8.30061538,16.2307692 8.40892308,16.1893077 8.49142308,16.1068077 L12,12.5982308 L15.5085769,16.1068077 C15.5910769,16.1893077 15.6993846,16.2307692 15.8076923,16.2307692 C15.916,16.2307692 16.0243077,16.1893077 16.1068077,16.1068077 C16.2722308,15.9413846 16.2722308,15.674 16.1068077,15.5085769 L12.5982308,12 L16.1068077,8.49142308 C16.2722308,8.326 16.2722308,8.05861538 16.1068077,7.89319231 Z" id="path-1"></path>
    </defs>
    <g id="icon/ic-circle-error" stroke="none" stroke-width="1" fill="none" fill-rule="evenodd">
        <g id="-g-ic-circle-check">
            <rect id="bound" x="0" y="0" width="24" height="24"></rect>
            <mask id="mask-2" fill="white">
                <use xlink:href="#path-1"></use>
            </mask>
            <use id="Combined-Shape" fill="#EE5151" fill-rule="nonzero" xlink:href="#path-1"></use>
        </g>
    </g>
</svg>