<?xml version="1.0" encoding="UTF-8"?>
<svg width="24px" height="24px" viewBox="0 0 24 24" version="1.1" xmlns="http://www.w3.org/2000/svg" xmlns:xlink="http://www.w3.org/1999/xlink">
    <!-- Generator: Sketch 49.2 (51160) - http://www.bohemiancoding.com/sketch -->
    <title>icon/ic-circle-time</title>
    <desc>Created with Sketch.</desc>
    <defs>
        <path d="M12,22 C17.5228475,22 22,17.5228475 22,12 C22,6.4771525 17.5228475,2 12,2 C6.4771525,2 2,6.4771525 2,12 C2,17.5228475 6.4771525,22 12,22 Z M12,23 C5.92486775,23 1,18.0751322 1,12 C1,5.92486775 5.92486775,1 12,1 C18.0751322,1 23,5.92486775 23,12 C23,18.0751322 18.0751322,23 12,23 Z M12.3913043,10.4903478 L12.3913043,6.52173913 C12.3913043,6.30534783 12.216,6.13043478 12,6.13043478 C11.784,6.13043478 11.6086957,6.30534783 11.6086957,6.52173913 L11.6086957,10.4903478 C11.0612609,10.6327826 10.6327826,11.0612609 10.4903478,11.6086957 L7.69565217,11.6086957 C7.47965217,11.6086957 7.30434783,11.7836087 7.30434783,12 C7.30434783,12.2163913 7.47965217,12.3913043 7.69565217,12.3913043 L10.4903478,12.3913043 C10.6652609,13.0643478 11.2729565,13.5652174 12,13.5652174 C12.8632174,13.5652174 13.5652174,12.8632174 13.5652174,12 C13.5652174,11.2725652 13.0643478,10.6652609 12.3913043,10.4903478 Z M12,12.7826087 C11.5683913,12.7826087 11.2173913,12.4316087 11.2173913,12 C11.2173913,11.5683913 11.5683913,11.2173913 12,11.2173913 C12.4316087,11.2173913 12.7826087,11.5683913 12.7826087,12 C12.7826087,12.4316087 12.4316087,12.7826087 12,12.7826087 Z M12,4.17391304 C12.216,4.17391304 12.3913043,3.999 12.3913043,3.7826087 L12.3913043,3.39130435 C12.3913043,3.17491304 12.216,3 12,3 C11.784,3 11.6086957,3.17491304 11.6086957,3.39130435 L11.6086957,3.7826087 C11.6086957,3.999 11.784,4.17391304 12,4.17391304 Z M12,19.826087 C11.784,19.826087 11.6086957,20.001 11.6086957,20.2173913 L11.6086957,20.6086957 C11.6086957,20.825087 11.784,21 12,21 C12.216,21 12.3913043,20.825087 12.3913043,20.6086957 L12.3913043,20.2173913 C12.3913043,20.001 12.216,19.826087 12,19.826087 Z M20.6086957,11.6086957 L20.2173913,11.6086957 C20.0013913,11.6086957 19.826087,11.7836087 19.826087,12 C19.826087,12.2163913 20.0013913,12.3913043 20.2173913,12.3913043 L20.6086957,12.3913043 C20.8246957,12.3913043 21,12.2163913 21,12 C21,11.7836087 20.8246957,11.6086957 20.6086957,11.6086957 Z M3.7826087,11.6086957 L3.39130435,11.6086957 C3.17530435,11.6086957 3,11.7836087 3,12 C3,12.2163913 3.17530435,12.3913043 3.39130435,12.3913043 L3.7826087,12.3913043 C3.9986087,12.3913043 4.17391304,12.2163913 4.17391304,12 C4.17391304,11.7836087 3.9986087,11.6086957 3.7826087,11.6086957 Z M17.8104783,5.63582609 L17.5338261,5.91247826 C17.3808261,6.06547826 17.3808261,6.31278261 17.5338261,6.46578261 C17.6101304,6.54208696 17.7103043,6.58043478 17.8104783,6.58043478 C17.9106522,6.58043478 18.0108261,6.54208696 18.0871304,6.46578261 L18.3637826,6.18913043 C18.5167826,6.03613043 18.5167826,5.78882609 18.3637826,5.63582609 C18.2107826,5.48282609 17.9634783,5.48321739 17.8104783,5.63582609 Z M5.91286957,17.5338261 L5.63621739,17.8104783 C5.48321739,17.9634783 5.48321739,18.2107826 5.63621739,18.3637826 C5.71252174,18.440087 5.81269565,18.4784348 5.91286957,18.4784348 C6.01304348,18.4784348 6.11321739,18.440087 6.18952174,18.3637826 L6.46617391,18.0871304 C6.61917391,17.9341304 6.61917391,17.6868261 6.46617391,17.5338261 C6.31317391,17.3808261 6.06547826,17.3812174 5.91286957,17.5338261 Z M18.0871304,17.5338261 C17.9341304,17.3808261 17.6868261,17.3808261 17.5338261,17.5338261 C17.3808261,17.6868261 17.3808261,17.9341304 17.5338261,18.0871304 L17.8104783,18.3637826 C17.8867826,18.440087 17.9869565,18.4784348 18.0871304,18.4784348 C18.1873043,18.4784348 18.2874783,18.440087 18.3637826,18.3637826 C18.5167826,18.2107826 18.5167826,17.9634783 18.3637826,17.8104783 L18.0871304,17.5338261 Z M6.18952174,5.63582609 C6.03652174,5.48282609 5.78921739,5.48282609 5.63621739,5.63582609 C5.48321739,5.78882609 5.48321739,6.03613043 5.63621739,6.18913043 L5.91286957,6.46578261 C5.98917391,6.54208696 6.08934783,6.58043478 6.18952174,6.58043478 C6.28969565,6.58043478 6.38986957,6.54208696 6.46617391,6.46578261 C6.61917391,6.31278261 6.61917391,6.06547826 6.46617391,5.91247826 L6.18952174,5.63582609 Z" id="path-1"></path>
    </defs>
    <g id="icon/ic-circle-time" stroke="none" stroke-width="1" fill="none" fill-rule="evenodd">
        <g id="-g-ic-circle-time">
            <rect id="bound" x="0" y="0" width="24" height="24"></rect>
            <mask id="mask-2" fill="white">
                <use xlink:href="#path-1"></use>
            </mask>
            <use id="Combined-Shape" fill="#789CA8" fill-rule="nonzero" xlink:href="#path-1"></use>
        </g>
    </g>
</svg>