<?xml version="1.0" encoding="UTF-8"?>
<svg width="24px" height="24px" viewBox="0 0 24 24" version="1.1" xmlns="http://www.w3.org/2000/svg" xmlns:xlink="http://www.w3.org/1999/xlink">
    <!-- Generator: Sketch 51 (57462) - http://www.bohemiancoding.com/sketch -->
    <title>Icon/Chart</title>
    <desc>Created with Sketch.</desc>
    <defs></defs>
    <g id="Icon/Chart" stroke="none" stroke-width="1" fill="none" fill-rule="evenodd">
        <g id="-g-ic-circle-add">
            <rect id="bound" x="0" y="0" width="24" height="24"></rect>
            <g id="chart-up" transform="translate(1.000000, 1.000000)" fill="#789CA8" fill-rule="nonzero">
                <path d="M21.5545,1.26408333 C21.7561667,1.26408333 21.9211667,1.42816667 21.9211667,1.63075 L21.9211667,3.41275 C21.9211667,3.61441667 21.7570833,3.77941667 21.5545,3.77941667 L21.0063333,3.77941667 L21.0063333,16.3038333 L21.2666667,16.3038333 L21.5535833,16.3038333 C21.75525,16.3038333 21.92025,16.4679167 21.92025,16.6705 L21.92025,18.4506667 C21.92025,18.6523333 21.7561667,18.8173333 21.5535833,18.8173333 L15.7116667,18.8173333 L17.2388333,21.42525 C17.3415,21.6003333 17.2819167,21.8249167 17.10775,21.9266667 C16.9345,22.03025 16.7080833,21.9706667 16.6063333,21.7955833 L14.8619167,18.8173333 L11.3666667,18.8173333 L11.3666667,21.6104167 C11.3666667,21.8120833 11.2016667,21.9770833 11,21.9770833 C10.7983333,21.9770833 10.6333333,21.813 10.6333333,21.6104167 L10.6333333,18.8173333 L7.13716667,18.8173333 L5.39458333,21.7955833 C5.32583333,21.912 5.203,21.9770833 5.07741667,21.9770833 C5.01416667,21.9770833 4.95,21.9605833 4.89225,21.9266667 C4.71716667,21.824 4.6585,21.5985 4.76025,21.4243333 L6.28741667,18.8164167 L0.4455,18.8164167 C0.243833333,18.8164167 0.0788333333,18.6523333 0.0788333333,18.44975 L0.0788333333,16.6695833 C0.0788333333,16.4679167 0.242916667,16.3029167 0.4455,16.3029167 L0.993666667,16.3029167 L0.993666667,3.7785 L0.872666667,3.7785 L0.4455,3.7785 C0.243833333,3.7785 0.0788333333,3.61441667 0.0788333333,3.41183333 L0.0788333333,1.63075 C0.0788333333,1.42908333 0.242916667,1.26408333 0.4455,1.26408333 L10.16675,1.26408333 L10.6333333,1.26408333 L10.6333333,0.388666667 C10.6333333,0.187 10.7983333,0.022 11,0.022 C11.2016667,0.022 11.3666667,0.186083333 11.3666667,0.388666667 L11.3666667,1.26408333 L12.2934167,1.26408333 L21.5545,1.26408333 Z M0.872666667,3.04516667 L0.872666667,3.04608333 L1.36033333,3.04608333 L20.63875,3.04608333 L20.9568333,3.04608333 L21.1869167,3.04608333 L21.1869167,1.99833333 L12.2934167,1.99833333 L10.16675,1.99833333 L0.813083333,1.99833333 L0.813083333,3.04516667 L0.872666667,3.04516667 Z M21.1869167,17.0380833 L20.6396667,17.0380833 L1.36125,17.0380833 L1.09266667,17.0380833 L0.813083333,17.0380833 L0.813083333,18.0849167 L6.91991667,18.0849167 C6.92633333,18.084 6.92908333,18.084 6.93366667,18.0849167 L15.0654167,18.0849167 C15.07,18.0849167 15.0718333,18.0849167 15.0791667,18.0849167 L16.3881667,18.0849167 L21.1869167,18.0849167 L21.1869167,17.0380833 Z M13.9415833,7.46716667 L18.5359167,6.23608333 L17.3048333,10.8304167 C17.3048333,10.8304167 16.8171667,9.89908333 16.3964167,9.2565 L12.5959167,13.057 L11.7168333,12.1779167 L11.7131667,12.1815833 L9.19325,9.66166667 L4.34591667,14.509 L3.465,13.6280833 L9.19233333,7.90075 L9.19325,7.90166667 L9.19416667,7.90075 L12.59225,11.2988333 L15.5155,8.37558333 C14.872,7.95391667 13.9415833,7.46716667 13.9415833,7.46716667 Z M1.72791667,16.3038333 L20.2720833,16.3038333 L20.2720833,3.77941667 L1.72791667,3.77941667 L1.72791667,16.3038333 Z" id="Combined-Shape"></path>
            </g>
        </g>
    </g>
</svg>