<?xml version="1.0" encoding="UTF-8"?>
<svg width="22px" height="22px" viewBox="0 0 22 22" version="1.1" xmlns="http://www.w3.org/2000/svg" xmlns:xlink="http://www.w3.org/1999/xlink">
    <!-- Generator: Sketch 50 (54983) - http://www.bohemiancoding.com/sketch -->
    <title>-g-ic-circle-download</title>
    <desc>Created with Sketch.</desc>
    <defs></defs>
    <g id="Symbols" stroke="none" stroke-width="1" fill="none" fill-rule="evenodd">
        <g id="Icon/Circle-Download" transform="translate(-1.000000, -1.000000)">
            <g id="-g-ic-circle-download">
                <rect id="bound" x="0" y="0" width="24" height="24"></rect>
                <path d="M12,23 C5.92486775,23 1,18.0751322 1,12 C1,5.92486775 5.92486775,1 12,1 C18.0751322,1 23,5.92486775 23,12 C23,18.0751322 18.0751322,23 12,23 Z M12,22 C17.5228475,22 22,17.5228475 22,12 C22,6.4771525 17.5228475,2 12,2 C6.4771525,2 2,6.4771525 2,12 C2,17.5228475 6.4771525,22 12,22 Z M11.4929354,17.3473867 L11.4929354,5.37207222 C11.4929354,5.15701666 11.7163972,4.98318333 11.9917342,4.98318333 C12.2670711,4.98318333 12.490533,5.15701666 12.490533,5.37207222 L12.490533,17.3513471 L16.8474069,12.9944732 C16.9591298,12.8827503 17.2074488,12.9504541 17.4021414,13.1451467 C17.596834,13.3398393 17.6645378,13.5881583 17.5528149,13.6998812 L12.3000217,18.9526744 C12.2383422,19.014354 12.1350298,19.0213464 12.0220926,18.9824753 C12.01205,18.9829451 12.0019276,18.9831833 11.9917342,18.9831833 C11.9827273,18.9831833 11.973776,18.9829973 11.9648862,18.9826299 C11.8521246,19.0213277 11.7490046,19.014272 11.6874071,18.9526744 L6.43461382,13.6998812 C6.32289095,13.5881583 6.39059471,13.3398393 6.58528733,13.1451467 C6.77997995,12.9504541 7.02829899,12.8827503 7.14002186,12.9944732 L11.4929354,17.3473867 Z" id="Combined-Shape" fill="#789CA8"></path>
            </g>
        </g>
    </g>
</svg>