<?xml version="1.0" encoding="UTF-8"?>
<svg width="24px" height="24px" viewBox="0 0 24 24" version="1.1" xmlns="http://www.w3.org/2000/svg" xmlns:xlink="http://www.w3.org/1999/xlink">
    <!-- Generator: Sketch 49.2 (51160) - http://www.bohemiancoding.com/sketch -->
    <title>icon/ic-circle-add-active</title>
    <desc>Created with Sketch.</desc>
    <defs>
        <path d="M12,22 C17.5228475,22 22,17.5228475 22,12 C22,6.4771525 17.5228475,2 12,2 C6.4771525,2 2,6.4771525 2,12 C2,17.5228475 6.4771525,22 12,22 Z M12.5,11.5 L12.5,8.5 L11.5,8.5 L11.5,11.5 L8.5,11.5 L8.5,12.5 L11.5,12.5 L11.5,15.5 L12.5,15.5 L12.5,12.5 L15.5,12.5 L15.5,11.5 L12.5,11.5 Z M12,23 C5.92486775,23 1,18.0751322 1,12 C1,5.92486775 5.92486775,1 12,1 C18.0751322,1 23,5.92486775 23,12 C23,18.0751322 18.0751322,23 12,23 Z" id="path-1"></path>
    </defs>
    <g id="icon/ic-circle-add-active" stroke="none" stroke-width="1" fill="none" fill-rule="evenodd">
        <g id="-g-ic-circle-add-active">
            <rect id="bound" x="0" y="0" width="24" height="24"></rect>
            <mask id="mask-2" fill="white">
                <use xlink:href="#path-1"></use>
            </mask>
            <use id="Icon" fill="#F08262" fill-rule="nonzero" xlink:href="#path-1"></use>
        </g>
    </g>
</svg>