<?xml version="1.0" encoding="UTF-8"?>
<svg width="24px" height="24px" viewBox="0 0 24 24" version="1.1" xmlns="http://www.w3.org/2000/svg" xmlns:xlink="http://www.w3.org/1999/xlink">
    <!-- Generator: Sketch 49.2 (51160) - http://www.bohemiancoding.com/sketch -->
    <title>icon/ic-exit</title>
    <desc>Created with Sketch.</desc>
    <defs>
        <path d="M23.4671266,12.1637143 C23.444994,12.2164286 23.41288,12.264 23.3729546,12.3034286 L18.1657185,17.4458571 C18.0810939,17.5294286 17.9699969,17.5714286 17.8589,17.5714286 C17.747803,17.5714286 17.6367061,17.5294286 17.5520814,17.4458571 C17.3823982,17.2782857 17.3823982,17.0074286 17.5520814,16.8398571 L22.0189604,12.4285714 L8.74547749,12.4285714 C8.50592467,12.4285714 8.31150499,12.237 8.31150499,12 C8.31150499,11.763 8.50592467,11.5714286 8.74547749,11.5714286 L22.0189604,11.5714286 L17.5520814,7.16014286 C17.3823982,6.99257143 17.3823982,6.72171429 17.5520814,6.55414286 C17.7217647,6.38657143 17.9960353,6.38657143 18.1657185,6.55414286 L23.3729546,11.6961429 C23.41288,11.736 23.444994,11.7835714 23.4671266,11.8362857 C23.5109578,11.9412857 23.5109578,12.0591429 23.4671266,12.1637143 Z M15.6890375,14.1428571 C15.9285903,14.1428571 16.12301,14.3344286 16.12301,14.5714286 L16.12301,23.5714286 C16.12301,23.8084286 15.9285903,24 15.6890375,24 L0.933972499,24 C0.69441968,24 0.5,23.8084286 0.5,23.5714286 L0.5,0.428571429 C0.5,0.191571429 0.69441968,0 0.933972499,0 L15.6890375,0 C15.9285903,0 16.12301,0.191571429 16.12301,0.428571429 L16.12301,9.42857143 C16.12301,9.66557143 15.9285903,9.85714286 15.6890375,9.85714286 C15.4494847,9.85714286 15.255065,9.66557143 15.255065,9.42857143 L15.255065,0.857142857 L1.367945,0.857142857 L1.367945,23.1428571 L15.255065,23.1428571 L15.255065,14.5714286 C15.255065,14.3344286 15.4494847,14.1428571 15.6890375,14.1428571 Z" id="path-1"></path>
    </defs>
    <g id="icon/ic-exit" stroke="none" stroke-width="1" fill="none" fill-rule="evenodd">
        <g id="-g-ic-exit">
            <rect id="bound" x="0" y="0" width="24" height="24"></rect>
            <mask id="mask-2" fill="white">
                <use xlink:href="#path-1"></use>
            </mask>
            <use id="Combined-Shape" fill="#789CA8" fill-rule="nonzero" xlink:href="#path-1"></use>
        </g>
    </g>
</svg>