<?xml version="1.0" encoding="UTF-8"?>
<svg width="24px" height="24px" viewBox="0 0 24 24" version="1.1" xmlns="http://www.w3.org/2000/svg" xmlns:xlink="http://www.w3.org/1999/xlink">
    <!-- Generator: Sketch 49.2 (51160) - http://www.bohemiancoding.com/sketch -->
    <title>icon/ic-folder</title>
    <desc>Created with Sketch.</desc>
    <defs>
        <path d="M22.3423333,5.01886792 C22.9809667,5.01886792 23.5,5.52981132 23.5,6.15849057 L23.5,8.41509434 L23.5,9.16981132 L23.5,20.8603774 C23.5,21.4890566 22.9805833,22 22.3423333,22 L1.65728333,22 C1.01903333,22 0.5,21.4886792 0.5,20.8603774 L0.5,9.16981132 L0.5,8.41509434 L0.5,3.13962264 C0.5,2.5109434 1.01903333,2 1.65728333,2 L10.0833333,2 C10.7215833,2 11.2406167,2.51132075 11.2406167,3.13962264 L11.2406167,5.01886792 L22.3423333,5.01886792 Z M7.78333333,13.3207547 C7.57173333,13.3207547 7.4,13.1520755 7.4,12.9433962 C7.4,12.734717 7.57173333,12.5660377 7.78333333,12.5660377 L13.15,12.5660377 C13.3616,12.5660377 13.5333333,12.734717 13.5333333,12.9433962 C13.5333333,13.1520755 13.3616,13.3207547 13.15,13.3207547 L7.78333333,13.3207547 Z M7.78333333,15.5849057 C7.57173333,15.5849057 7.4,15.4162264 7.4,15.2075472 C7.4,14.9988679 7.57173333,14.8301887 7.78333333,14.8301887 L16.2166667,14.8301887 C16.4282667,14.8301887 16.6,14.9988679 16.6,15.2075472 C16.6,15.4162264 16.4282667,15.5849057 16.2166667,15.5849057 L7.78333333,15.5849057 Z M7.78333333,17.8490566 C7.57173333,17.8490566 7.4,17.6803774 7.4,17.4716981 C7.4,17.2630189 7.57173333,17.0943396 7.78333333,17.0943396 L16.2166667,17.0943396 C16.4282667,17.0943396 16.6,17.2630189 16.6,17.4716981 C16.6,17.6803774 16.4282667,17.8490566 16.2166667,17.8490566 L7.78333333,17.8490566 Z M22.7333333,20.8603774 L22.7333333,9.16981132 L1.26666667,9.16981132 L1.26666667,20.8603774 C1.26666667,21.0728302 1.44185,21.245283 1.65728333,21.245283 L22.3423333,21.245283 C22.55815,21.245283 22.7333333,21.0728302 22.7333333,20.8603774 Z M1.26666667,8.41509434 L22.7333333,8.41509434 L22.7333333,6.15849057 C22.7333333,5.94603774 22.55815,5.77358491 22.3423333,5.77358491 L10.47395,5.77358491 L10.47395,3.13962264 C10.47395,2.92716981 10.2987667,2.75471698 10.0833333,2.75471698 L1.65728333,2.75471698 C1.44185,2.75471698 1.26666667,2.92716981 1.26666667,3.13962264 L1.26666667,8.41509434 Z" id="path-1"></path>
    </defs>
    <g id="icon/ic-folder" stroke="none" stroke-width="1" fill="none" fill-rule="evenodd">
        <g id="-g-ic-folder">
            <rect id="bound" x="0" y="0" width="24" height="24"></rect>
            <mask id="mask-2" fill="white">
                <use xlink:href="#path-1"></use>
            </mask>
            <use id="Combined-Shape" fill="#789CA8" fill-rule="nonzero" xlink:href="#path-1"></use>
        </g>
    </g>
</svg>