<?xml version="1.0" encoding="UTF-8"?>
<svg width="19px" height="24px" viewBox="0 0 19 24" version="1.1" xmlns="http://www.w3.org/2000/svg" xmlns:xlink="http://www.w3.org/1999/xlink">
    <!-- Generator: Sketch 50 (54983) - http://www.bohemiancoding.com/sketch -->
    <title>-g-ic-file</title>
    <desc>Created with Sketch.</desc>
    <defs>
        <path d="M16.1035319,0 L22,5.8344 L22,24 L3,24 L3,0 L16.1035319,0 Z M16.3404255,1.3656 L16.3404255,5.6 L20.6198723,5.6 L16.3404255,1.3656 Z M17.5531915,8.8 C17.7763404,8.8 17.9574468,8.9788 17.9574468,9.2 C17.9574468,9.4212 17.7763404,9.6 17.5531915,9.6 L7.44680851,9.6 C7.22365957,9.6 7.04255319,9.4212 7.04255319,9.2 C7.04255319,8.9788 7.22365957,8.8 7.44680851,8.8 L17.5531915,8.8 Z M7.44680851,6.4 C7.22365957,6.4 7.04255319,6.2212 7.04255319,6 C7.04255319,5.7788 7.22365957,5.6 7.44680851,5.6 L11.4893617,5.6 C11.7125106,5.6 11.893617,5.7788 11.893617,6 C11.893617,6.2212 11.7125106,6.4 11.4893617,6.4 L7.44680851,6.4 Z M17.5531915,12 C17.7763404,12 17.9574468,12.1788 17.9574468,12.4 C17.9574468,12.6212 17.7763404,12.8 17.5531915,12.8 L7.44680851,12.8 C7.22365957,12.8 7.04255319,12.6212 7.04255319,12.4 C7.04255319,12.1788 7.22365957,12 7.44680851,12 L17.5531915,12 Z M17.5531915,15.2 C17.7763404,15.2 17.9574468,15.3788 17.9574468,15.6 C17.9574468,15.8212 17.7763404,16 17.5531915,16 L7.44680851,16 C7.22365957,16 7.04255319,15.8212 7.04255319,15.6 C7.04255319,15.3788 7.22365957,15.2 7.44680851,15.2 L17.5531915,15.2 Z M17.5531915,18.4 C17.7763404,18.4 17.9574468,18.5788 17.9574468,18.8 C17.9574468,19.0212 17.7763404,19.2 17.5531915,19.2 L7.44680851,19.2 C7.22365957,19.2 7.04255319,19.0212 7.04255319,18.8 C7.04255319,18.5788 7.22365957,18.4 7.44680851,18.4 L17.5531915,18.4 Z M3.80851064,23.2 L21.1914894,23.2 L21.1914894,6.4 L15.5319149,6.4 L15.5319149,0.8 L3.80851064,0.8 L3.80851064,23.2 Z" id="path-1"></path>
    </defs>
    <g id="Symbols" stroke="none" stroke-width="1" fill="none" fill-rule="evenodd">
        <g id="Icon/File" transform="translate(-3.000000, 0.000000)">
            <g id="-g-ic-file">
                <rect id="bound" x="0" y="0" width="24" height="24"></rect>
                <mask id="mask-2" fill="white">
                    <use xlink:href="#path-1"></use>
                </mask>
                <use id="Combined-Shape" fill="#789CA8" fill-rule="nonzero" xlink:href="#path-1"></use>
            </g>
        </g>
    </g>
</svg>