<?xml version="1.0" encoding="UTF-8"?>
<svg width="24px" height="24px" viewBox="0 0 24 24" version="1.1" xmlns="http://www.w3.org/2000/svg" xmlns:xlink="http://www.w3.org/1999/xlink">
    <!-- Generator: Sketch 50 (54983) - http://www.bohemiancoding.com/sketch -->
    <title>-g-ic-home</title>
    <desc>Created with Sketch.</desc>
    <defs></defs>
    <g id="Symbols" stroke="none" stroke-width="1" fill="none" fill-rule="evenodd">
        <g id="Icon/Home">
            <g id="-g-ic-home">
                <rect id="bound" x="0" y="0" width="24" height="24"></rect>
                <path d="M23.8679776,10.9512208 L11.9998229,0 L0.132081974,10.9512208 C-0.0350926194,11.105834 -0.0450237834,11.366127 0.110564452,11.5326651 C0.26532509,11.6987921 0.528087136,11.7082498 0.69526173,11.5540478 L2.06865894,10.2867129 L2.06865894,24 L8.68943491,24 L15.3102109,24 L21.9309869,24 L21.9309869,10.2863017 L23.3043841,11.5536366 C23.3838334,11.6272424 23.485214,11.6634284 23.5861808,11.6634284 C23.6974926,11.6634284 23.8079768,11.6194295 23.8890813,11.5322539 C24.0450834,11.366127 24.0351522,11.105834 23.8679776,10.9512208 Z M9.51703191,23.1775893 L9.51703191,16.5983038 C9.51703191,15.2376253 10.6305637,14.1310717 11.9998229,14.1310717 C13.3690821,14.1310717 14.4826139,15.2376253 14.4826139,16.5983038 L14.4826139,23.1775893 L9.51703191,23.1775893 Z M21.1033899,23.1775893 L15.3102109,23.1775893 L15.3102109,16.5983038 C15.3102109,14.784477 13.8250881,13.308661 11.9998229,13.308661 C10.1745577,13.308661 8.68943491,14.784477 8.68943491,16.5983038 L8.68943491,23.1775893 L2.89625594,23.1775893 L2.89625594,9.5226934 L11.9998229,1.12217939 L21.1033899,9.5226934 L21.1033899,23.1775893 Z" id="Shape" fill="#789CA8" fill-rule="nonzero"></path>
            </g>
        </g>
    </g>
</svg>