<?xml version="1.0" encoding="UTF-8"?>
<svg width="24px" height="24px" viewBox="0 0 24 24" version="1.1" xmlns="http://www.w3.org/2000/svg" xmlns:xlink="http://www.w3.org/1999/xlink">
    <!-- Generator: Sketch 51.2 (57519) - http://www.bohemiancoding.com/sketch -->
    <title>Icon/Key Active</title>
    <desc>Created with Sketch.</desc>
    <defs></defs>
    <g id="Icon/Key-Active" stroke="none" stroke-width="1" fill="none" fill-rule="evenodd">
        <g id="-g-ic-key-active" fill="#F08262">
            <path d="M17.1428571,0 C13.362,0 10.2857143,3.07628571 10.2857143,6.85714286 C10.2857143,8.265 10.7134286,9.57428571 11.4437143,10.6645714 L0.125571429,21.9827143 C-0.042,22.1502857 -0.042,22.4211429 0.125571429,22.5887143 C0.209142857,22.6722857 0.318857143,22.7142857 0.428571429,22.7142857 C0.538285714,22.7142857 0.648,22.6722857 0.731571429,22.5887143 L2.57142857,20.7488571 L5.697,23.8744286 C5.78057143,23.958 5.89028571,24 6,24 C6.10971429,24 6.21942857,23.958 6.303,23.8744286 C6.47057143,23.7068571 6.47057143,23.436 6.303,23.2684286 L3.17742857,20.1428571 L4.71428571,18.606 L6.98271429,20.8744286 C7.06628571,20.958 7.176,21 7.28571429,21 C7.39542857,21 7.50514286,20.958 7.58871429,20.8744286 C7.75628571,20.7068571 7.75628571,20.436 7.58871429,20.2684286 L5.32028571,18 L6.85714286,16.4631429 L9.98271429,19.5887143 C10.0662857,19.6722857 10.176,19.7142857 10.2857143,19.7142857 C10.3954286,19.7142857 10.5051429,19.6722857 10.5887143,19.5887143 C10.7562857,19.4211429 10.7562857,19.1502857 10.5887143,18.9827143 L7.46314286,15.8571429 L11.9725714,11.3477143 C13.2308571,12.7941429 15.0797143,13.7142857 17.1428571,13.7142857 C20.9237143,13.7142857 24,10.638 24,6.85714286 C24,3.07628571 20.9237143,0 17.1428571,0 Z M17.1428571,12.8571429 C13.8342857,12.8571429 11.1428571,10.1657143 11.1428571,6.85714286 C11.1428571,3.54857143 13.8342857,0.857142857 17.1428571,0.857142857 C20.4514286,0.857142857 23.1428571,3.54857143 23.1428571,6.85714286 C23.1428571,10.1657143 20.4514286,12.8571429 17.1428571,12.8571429 Z" id="Shape"></path>
        </g>
    </g>
</svg>