<?xml version="1.0" encoding="UTF-8"?>
<svg width="24px" height="24px" viewBox="0 0 24 24" version="1.1" xmlns="http://www.w3.org/2000/svg" xmlns:xlink="http://www.w3.org/1999/xlink">
    <!-- Generator: Sketch 49.2 (51160) - http://www.bohemiancoding.com/sketch -->
    <title>icon/ic-notification-active</title>
    <desc>Created with Sketch.</desc>
    <defs>
        <path d="M24,5.36363636 C24,2.95752727 22.0062222,1 19.5555556,1 C17.5693333,1 15.884,2.2864 15.316,4.05454545 L2.32666667,4.05454545 C1.044,4.05454545 0,5.07956364 0,6.33890909 L0,22.7152 C0,23.9749818 1.044,25 2.32666667,25 L19.0062222,25 C20.2893333,25 21.3328889,23.9749818 21.3328889,22.7156364 L21.3328889,9.36029091 C22.9008889,8.68523636 24,7.1488 24,5.36363636 Z M20.4444444,22.7156364 C20.4444444,23.4941091 19.7995556,24.1272727 19.0066667,24.1272727 L2.32666667,24.1272727 C1.53377778,24.1272727 0.888888889,23.4941091 0.888888889,22.7156364 L0.888888889,6.33890909 C0.888888889,5.56043636 1.53377778,4.92727273 2.32666667,4.92727273 L15.1333333,4.92727273 C15.1191111,5.07083636 15.1111111,5.21614545 15.1111111,5.36363636 C15.1111111,7.76974545 17.1048889,9.72727273 19.5555556,9.72727273 C19.86,9.72727273 20.1573333,9.69672727 20.4444444,9.63912727 L20.4444444,22.7156364 Z" id="path-1"></path>
    </defs>
    <g id="icon/ic-notification-active" stroke="none" stroke-width="1" fill="none" fill-rule="evenodd">
        <g id="-g-ic-notification-active" transform="translate(0.000000, -1.000000)">
            <rect id="bound" x="0" y="1" width="24" height="24"></rect>
            <mask id="mask-2" fill="white">
                <use xlink:href="#path-1"></use>
            </mask>
            <use id="Shape" fill="#1E5A6E" fill-rule="nonzero" xlink:href="#path-1"></use>
            <path d="M21.0484306,9.52666818 C20.9370556,9.56532727 20.8245556,9.59846364 20.7114931,9.62883864 C20.6912431,9.63436136 20.6704306,9.63933182 20.6501806,9.64430227 C20.5506181,9.66915455 20.4504931,9.69069318 20.3498056,9.70891818 C20.2980556,9.71830682 20.2451806,9.72493409 20.1928681,9.73266591 C20.1174931,9.74371136 20.0415556,9.75475682 19.9661806,9.76193636 C19.8306181,9.77353409 19.6939306,9.78181818 19.5555556,9.78181818 C17.0743681,9.78181818 15.0555556,7.79971136 15.0555556,5.36363636 C15.0555556,5.04331818 15.0943681,4.71361136 15.1714306,4.38224773 C15.6276181,2.41726136 17.4180556,0.945454545 19.5555556,0.945454545 C22.0367431,0.945454545 24.0555556,2.92756136 24.0555556,5.36363636 C24.0555556,7.28554545 22.7966806,8.92027273 21.0484306,9.52666818 Z" id="Path" fill="#EE5151"></path>
        </g>
    </g>
</svg>