<?xml version="1.0" encoding="UTF-8"?>
<svg width="24px" height="24px" viewBox="0 0 24 24" version="1.1" xmlns="http://www.w3.org/2000/svg" xmlns:xlink="http://www.w3.org/1999/xlink">
    <!-- Generator: Sketch 49.2 (51160) - http://www.bohemiancoding.com/sketch -->
    <title>icon/ic-notification</title>
    <desc>Created with Sketch.</desc>
    <defs>
        <path d="M24,4.36363636 C24,1.95752727 22.0062222,0 19.5555556,0 C17.5693333,0 15.884,1.2864 15.316,3.05454545 L2.32666667,3.05454545 C1.044,3.05454545 0,4.07956364 0,5.33890909 L0,21.7152 C0,22.9749818 1.044,24 2.32666667,24 L19.0062222,24 C20.2893333,24 21.3328889,22.9749818 21.3328889,21.7156364 L21.3328889,8.36029091 C22.9008889,7.68523636 24,6.1488 24,4.36363636 Z M20.4444444,21.7156364 C20.4444444,22.4941091 19.7995556,23.1272727 19.0066667,23.1272727 L2.32666667,23.1272727 C1.53377778,23.1272727 0.888888889,22.4941091 0.888888889,21.7156364 L0.888888889,5.33890909 C0.888888889,4.56043636 1.53377778,3.92727273 2.32666667,3.92727273 L15.1333333,3.92727273 C15.1191111,4.07083636 15.1111111,4.21614545 15.1111111,4.36363636 C15.1111111,6.76974545 17.1048889,8.72727273 19.5555556,8.72727273 C19.86,8.72727273 20.1573333,8.69672727 20.4444444,8.63912727 L20.4444444,21.7156364 Z M20.7351111,7.65294545 C20.6471111,7.68349091 20.5582222,7.70967273 20.4688889,7.73367273 C20.4528889,7.73803636 20.4364444,7.74196364 20.4204444,7.74589091 C20.3417778,7.76552727 20.2626667,7.78254545 20.1831111,7.79694545 C20.1422222,7.80436364 20.1004444,7.8096 20.0591111,7.81570909 C19.9995556,7.82443636 19.9395556,7.83316364 19.88,7.83883636 C19.7728889,7.848 19.6648889,7.85454545 19.5555556,7.85454545 C17.5951111,7.85454545 16,6.28843636 16,4.36363636 C16,4.11054545 16.0306667,3.85003636 16.0915556,3.58821818 C16.452,2.03563636 17.8666667,0.872727273 19.5555556,0.872727273 C21.516,0.872727273 23.1111111,2.43883636 23.1111111,4.36363636 C23.1111111,5.88218182 22.1164444,7.17381818 20.7351111,7.65294545 Z" id="path-1"></path>
    </defs>
    <g id="icon/ic-notification" stroke="none" stroke-width="1" fill="none" fill-rule="evenodd">
        <g id="-g-ic-notification">
            <rect id="bound" x="0" y="0" width="24" height="24"></rect>
            <mask id="mask-2" fill="white">
                <use xlink:href="#path-1"></use>
            </mask>
            <use id="Shape" fill="#789CA8" fill-rule="nonzero" xlink:href="#path-1"></use>
        </g>
    </g>
</svg>