<?xml version="1.0" encoding="UTF-8"?>
<svg width="24px" height="24px" viewBox="0 0 24 24" version="1.1" xmlns="http://www.w3.org/2000/svg" xmlns:xlink="http://www.w3.org/1999/xlink">
    <!-- Generator: Sketch 49.2 (51160) - http://www.bohemiancoding.com/sketch -->
    <title>icon/ic-pending</title>
    <desc>Created with Sketch.</desc>
    <defs>
        <path d="M21.12,22.7333333 C21.32976,22.7333333 21.5,22.9046833 21.5,23.1166667 C21.5,23.32865 21.32976,23.5 21.12,23.5 L19.98,23.5 L19.6,23.5 L4.4,23.5 L4.02,23.5 L2.88,23.5 C2.67024,23.5 2.5,23.32865 2.5,23.1166667 C2.5,22.9046833 2.67024,22.7333333 2.88,22.7333333 L4.02,22.7333333 L4.02,21.2 L5.92,21.2 L5.92,17.2815667 C5.92,16.2465667 6.42996,15.2851667 7.28382,14.7109333 L11.31486,12 L7.28382,9.28906667 C6.42996,8.71483333 5.92,7.75343333 5.92,6.71843333 L5.92,2.8 L4.02,2.8 L4.02,1.26666667 L2.88,1.26666667 C2.67024,1.26666667 2.5,1.09531667 2.5,0.883333333 C2.5,0.67135 2.67024,0.5 2.88,0.5 L4.02,0.5 L4.4,0.5 L19.6,0.5 L19.98,0.5 L21.12,0.5 C21.32976,0.5 21.5,0.67135 21.5,0.883333333 C21.5,1.09531667 21.32976,1.26666667 21.12,1.26666667 L19.98,1.26666667 L19.98,2.8 L18.08,2.8 L18.08,6.71843333 C18.08,7.75343333 17.57004,8.71483333 16.71618,9.28906667 L12.68514,12 L16.71618,14.7109333 C17.57004,15.2851667 18.08,16.2465667 18.08,17.2815667 L18.08,21.2 L19.98,21.2 L19.98,22.7333333 L21.12,22.7333333 Z M4.78,2.03333333 L5.92,2.03333333 L18.08,2.03333333 L19.22,2.03333333 L19.22,1.26666667 L4.78,1.26666667 L4.78,2.03333333 Z M8.54846,7.37546667 L10.31128,8.56073333 C10.4857,8.67841667 10.53282,8.91608333 10.41654,9.09241667 C10.3432,9.2032 10.22274,9.263 10.1,9.263 C10.02742,9.263 9.95408,9.24191667 9.88948,9.1986 L8.12704,8.01333333 C7.69688,7.7243 7.44,7.24015 7.44,6.71843333 L7.44,5.86666667 C7.44,5.65468333 7.61024,5.48333333 7.82,5.48333333 C8.02976,5.48333333 8.2,5.65468333 8.2,5.86666667 L8.2,6.71843333 C8.2,6.98293333 8.33034,7.22865 8.54846,7.37546667 Z M7.70524,8.6512 L12,11.5392333 L16.29476,8.6512 C16.93658,8.21918333 17.32,7.4966 17.32,6.71843333 L17.32,2.8 L6.68,2.8 L6.68,6.71843333 C6.68,7.4966 7.06342,8.21918333 7.70524,8.6512 Z M15.87296,16.3163333 C16.30312,16.6053667 16.56,17.0891333 16.56,17.6112333 L16.56,18.463 C16.56,18.6749833 16.38976,18.8463333 16.18,18.8463333 C15.97024,18.8463333 15.8,18.6749833 15.8,18.463 L15.8,17.6112333 C15.8,17.34635 15.66966,17.1010167 15.45116,16.9542 L13.68872,15.7689333 C13.5143,15.65125 13.46718,15.4135833 13.58346,15.23725 C13.70012,15.0609167 13.93572,15.0133833 14.11052,15.1310667 L15.87296,16.3163333 Z M6.68,17.2815667 L6.68,21.2 L17.32,21.2 L17.32,17.2815667 C17.32,16.5034 16.93658,15.7808167 16.29476,15.3488 L12,12.4607667 L7.70524,15.3488 C7.06342,15.7808167 6.68,16.5034 6.68,17.2815667 Z M4.78,21.9666667 L4.78,22.7333333 L19.22,22.7333333 L19.22,21.9666667 L18.08,21.9666667 L5.92,21.9666667 L4.78,21.9666667 Z" id="path-1"></path>
    </defs>
    <g id="icon/ic-pending" stroke="none" stroke-width="1" fill="none" fill-rule="evenodd">
        <g id="-g-ic-pending">
            <rect id="bound" x="0" y="0" width="24" height="24"></rect>
            <mask id="mask-2" fill="white">
                <use xlink:href="#path-1"></use>
            </mask>
            <use id="Combined-Shape" fill="#789CA8" fill-rule="nonzero" xlink:href="#path-1"></use>
        </g>
    </g>
</svg>
