<?xml version="1.0" encoding="UTF-8"?>
<svg width="24px" height="24px" viewBox="0 0 24 24" version="1.1" xmlns="http://www.w3.org/2000/svg" xmlns:xlink="http://www.w3.org/1999/xlink">
    <!-- Generator: Sketch 49.2 (51160) - http://www.bohemiancoding.com/sketch -->
    <title>icon/ic-search</title>
    <desc>Created with Sketch.</desc>
    <defs>
        <path d="M23.3743145,22.7648303 L16.6731564,16.0545067 C18.3823824,14.4039573 19.4412908,12.1285353 19.4412908,9.61905751 C19.4412908,4.59054865 15.1930298,0.5 9.97064538,0.5 C4.74826093,0.5 0.5,4.59054865 0.5,9.61905751 C0.5,14.6475664 4.74826093,18.738115 9.97064538,18.738115 C12.2629925,18.738115 14.3668288,17.9490994 16.0066034,16.6398633 L22.7239968,23.3666881 C22.8123895,23.4557074 22.9305471,23.5 23.0491557,23.5 C23.1619014,23.5 23.2741962,23.4596156 23.361687,23.3788468 C23.5411782,23.2125326 23.54659,22.9376581 23.3743145,22.7648303 Z M9.97064538,17.8696333 C5.2456953,17.8696333 1.40196623,14.1685987 1.40196623,9.61905751 C1.40196623,5.06951629 5.2456953,1.36848167 9.97064538,1.36848167 C14.6955955,1.36848167 18.5393245,5.06951629 18.5393245,9.61905751 C18.5393245,14.1685987 14.6951445,17.8696333 9.97064538,17.8696333 Z" id="path-1"></path>
    </defs>
    <g id="icon/ic-search" stroke="none" stroke-width="1" fill="none" fill-rule="evenodd">
        <g id="-g-ic-search">
            <rect id="bound" x="0" y="0" width="24" height="24"></rect>
            <mask id="mask-2" fill="white">
                <use xlink:href="#path-1"></use>
            </mask>
            <use id="Shape" fill="#789CA8" fill-rule="nonzero" xlink:href="#path-1"></use>
        </g>
    </g>
</svg>