<?xml version="1.0" encoding="UTF-8"?>
<svg width="24px" height="24px" viewBox="0 0 24 24" version="1.1" xmlns="http://www.w3.org/2000/svg" xmlns:xlink="http://www.w3.org/1999/xlink">
    <!-- Generator: Sketch 51 (57462) - http://www.bohemiancoding.com/sketch -->
    <title>Icon/Settings Active</title>
    <desc>Created with Sketch.</desc>
    <defs></defs>
    <g id="Icon/Settings-Active" stroke="none" stroke-width="1" fill="none" fill-rule="evenodd">
        <g id="-g-ic-settings-active">
            <rect id="bound" x="0" y="0" width="24" height="24"></rect>
            <path d="M11.9997963,6.29619822 C8.85466936,6.29619822 6.29619822,8.85466936 6.29619822,11.9997963 C6.29619822,15.1449232 8.85466936,17.7033944 11.9997963,17.7033944 C15.1449232,17.7033944 17.7033944,15.1449232 17.7033944,11.9997963 C17.7033944,8.85466936 15.1449232,6.29619822 11.9997963,6.29619822 Z M21.867021,9.55539712 C22.491565,9.55539712 22.9995926,10.0634248 23,10.6879687 L23,13.3116239 C23,13.9361678 22.4919724,14.4441955 21.8674284,14.4441955 L21.0452955,14.4441955 C20.8354845,15.2227366 20.5266754,15.967871 20.1245718,16.6673765 L20.705524,17.2483287 C20.9194089,17.4626211 21.0371475,17.7469862 21.0371475,18.0492769 C21.0371475,18.351975 20.9194089,18.6367475 20.705524,18.8506324 L18.8506324,20.705524 C18.4224551,21.1332938 17.6769134,21.1341086 17.2483287,20.705524 L16.6673765,20.1245718 C15.967871,20.5270828 15.2227366,20.8354845 14.4441955,21.0452955 L14.4441955,21.8674284 C14.4441955,22.4919724 13.9361678,23 13.3116239,23 L10.6883761,23 C10.0638322,23 9.55580452,22.4919724 9.55580452,21.8674284 L9.55580452,21.0452955 C8.77726338,20.8354845 8.03212903,20.5266754 7.33262347,20.1245718 L6.75167127,20.705524 C6.32349401,21.1341086 5.57713746,21.1337012 5.1493676,20.705524 L3.29447603,18.8506324 C3.0805911,18.6363401 2.96285254,18.351975 2.96285254,18.0492769 C2.96285254,17.7469862 3.0805911,17.4622137 3.29447603,17.2483287 L3.87542823,16.6673765 C3.47291717,15.967871 3.16451547,15.2227366 2.95470454,14.4441955 L2.13257162,14.4441955 C1.50802763,14.4441955 1,13.9361678 1,13.3112165 L1,10.6879687 C1,10.0634248 1.50802763,9.55539712 2.13257162,9.55539712 L2.95470454,9.55539712 C3.16410807,8.77644858 3.47291717,8.03090684 3.87502083,7.33262347 L3.29406863,6.75167127 C3.0801837,6.53737894 2.96244514,6.25301383 2.96244514,5.95072313 C2.96244514,5.64802504 3.0801837,5.36325253 3.29406863,5.1493676 L5.1489602,3.29447603 C5.57673006,2.86670617 6.32308661,2.86589137 6.75126387,3.29447603 L7.33221607,3.87542823 C8.03172163,3.47291717 8.77685598,3.16451547 9.55539712,2.95470454 L9.55539712,2.13257162 C9.55539712,1.50802763 10.0634248,1 10.6879687,1 L13.3116239,1 C13.9361678,1 14.4441955,1.50802763 14.4441955,2.13257162 L14.4441955,2.95470454 C15.2227366,3.16451547 15.967871,3.47291717 16.6669691,3.87502083 L17.2479213,3.29406863 C17.676506,2.86589137 18.4224551,2.86670617 18.850225,3.29406863 L20.7051166,5.1489602 C20.9190015,5.36325253 21.0367401,5.64761764 21.0367401,5.95031573 C21.0367401,6.25260643 20.9190015,6.53737894 20.7051166,6.75126387 L20.1241644,7.33221607 C20.5266754,8.03090684 20.8350771,8.77644858 21.0448881,9.55539712 L21.867021,9.55539712 Z M11.9997963,16.8885947 C9.30403141,16.8885947 7.11099794,14.6955612 7.11099794,11.9997963 C7.11099794,9.30403141 9.30403141,7.11099794 11.9997963,7.11099794 C14.6955612,7.11099794 16.8885947,9.30403141 16.8885947,11.9997963 C16.8885947,14.6955612 14.6955612,16.8885947 11.9997963,16.8885947 Z M22.1847929,13.3116239 L22.1847929,10.6879687 C22.1847929,10.5127868 22.0422029,10.3701968 21.867021,10.3701968 L20.4036407,10.3701968 L20.3303087,10.0552768 C20.1184608,9.14310846 19.7603563,8.27819855 19.2657729,7.48417622 L19.0946649,7.20958871 L20.1290532,6.17520046 C20.2533101,6.0513509 20.2533101,5.84968797 20.1290532,5.72543101 L18.2741616,3.87053943 C18.1507194,3.74668988 17.9490565,3.74587508 17.8243921,3.87053943 L16.7900039,4.90492769 L16.5154164,4.73381974 C15.7205792,4.23923631 14.8556693,3.88153923 13.9443158,3.6692839 L13.6293958,3.59595193 L13.6293958,2.13257162 C13.6293958,1.95738968 13.4868058,1.81479973 13.3112165,1.81479973 L10.6879687,1.81479973 C10.5127868,1.81479973 10.3701968,1.95738968 10.3701968,2.13257162 L10.3701968,3.59595193 L10.0552768,3.6692839 C9.14351586,3.88113183 8.27860595,4.23923631 7.48417622,4.73381974 L7.20958871,4.90492769 L6.17520046,3.87053943 C6.0509435,3.74587508 5.84928057,3.74668988 5.72543101,3.87053943 L3.87053943,5.72543101 C3.74628248,5.84928057 3.74628248,6.0509435 3.87053943,6.17520046 L4.90492769,7.20958871 L4.73381974,7.48417622 C4.23923631,8.27860595 3.88153923,9.14351586 3.6692839,10.0552768 L3.59595193,10.3701968 L2.13257162,10.3701968 C1.95738968,10.3701968 1.81479973,10.5127868 1.81479973,10.6879687 L1.81479973,13.3116239 C1.81479973,13.4868058 1.95738968,13.6293958 2.13257162,13.6293958 L3.59595193,13.6293958 L3.6692839,13.9443158 C3.88113183,14.8560767 4.23923631,15.7209866 4.73381974,16.5154164 L4.90492769,16.7900039 L3.87053943,17.8243921 C3.74628248,17.9482417 3.74628248,18.1499046 3.87053943,18.2741616 L5.72543101,20.1290532 C5.84887317,20.2529027 6.0505361,20.2537175 6.17520046,20.1290532 L7.20958871,19.0946649 L7.48417622,19.2657729 C8.27901335,19.7603563 9.14392326,20.1180534 10.0552768,20.3303087 L10.3701968,20.4036407 L10.3701968,21.867021 C10.3701968,22.0422029 10.5127868,22.1847929 10.6879687,22.1847929 L13.3116239,22.1847929 C13.4868058,22.1847929 13.6293958,22.0422029 13.6293958,21.867021 L13.6293958,20.4036407 L13.9443158,20.3303087 C14.8560767,20.1184608 15.7209866,19.7603563 16.5154164,19.2657729 L16.7900039,19.0946649 L17.8243921,20.1290532 C17.9486491,20.2537175 18.150312,20.2529027 18.2741616,20.1290532 L20.1290532,18.2741616 C20.2533101,18.150312 20.2533101,17.9486491 20.1290532,17.8243921 L19.0946649,16.7900039 L19.2657729,16.5154164 C19.7603563,15.7205792 20.1180534,14.8556693 20.3303087,13.9443158 L20.4036407,13.6293958 L21.867021,13.6293958 C22.0422029,13.6293958 22.1847929,13.4868058 22.1847929,13.3116239 Z M11.9997963,7.92579767 C9.75339346,7.92579767 7.92579767,9.75339346 7.92579767,11.9997963 C7.92579767,14.2461991 9.75339346,16.0737949 11.9997963,16.0737949 C14.2461991,16.0737949 16.0737949,14.2461991 16.0737949,11.9997963 C16.0737949,9.75339346 14.2461991,7.92579767 11.9997963,7.92579767 Z M11.9997963,15.2589952 C10.2027555,15.2589952 8.7405974,13.7968371 8.7405974,11.9997963 C8.7405974,10.2027555 10.2027555,8.7405974 11.9997963,8.7405974 C13.7968371,8.7405974 15.2589952,10.2027555 15.2589952,11.9997963 C15.2589952,13.7968371 13.7968371,15.2589952 11.9997963,15.2589952 Z" id="Combined-Shape" fill="#F08262" fill-rule="nonzero"></path>
        </g>
    </g>
</svg>