<?xml version="1.0" encoding="UTF-8"?>
<svg width="24px" height="24px" viewBox="0 0 24 24" version="1.1" xmlns="http://www.w3.org/2000/svg" xmlns:xlink="http://www.w3.org/1999/xlink">
    <!-- Generator: Sketch 49.2 (51160) - http://www.bohemiancoding.com/sketch -->
    <title>icon/ic-user</title>
    <desc>Created with Sketch.</desc>
    <defs>
        <path d="M22.2068,17.62 L18.2976,15.9268 C18.2056,15.8808 18.1036,15.7684 18.016,15.6184 L20.626,15.6164 C20.6716,15.6208 21.7476,15.7192 22.6104,15.3484 C22.9372,15.2076 23.1804,14.9296 23.278,14.5856 C23.3764,14.2384 23.314,13.8708 23.1076,13.5764 C22.3616,12.5148 20.6204,9.7408 20.566,6.9272 C20.5648,6.8788 20.4072,2.094 15.682,2.0552 C14.9864,2.0608 14.3432,2.1788 13.758,2.3964 C13.6304,2.0712 13.4424,1.732 13.1628,1.4128 C12.3416,0.4752 11.0084,0 9.2,0 C7.3916,0 6.0584,0.4752 5.2368,1.412 C4.2896,2.4924 4.3776,3.8024 4.4,4.022 L4.4,6.1496 C4.144,6.4412 4,6.8144 4,7.1996 L4,8.7996 C4,9.2864 4.2212,9.7404 4.5988,10.0432 C4.9652,11.494 5.732,12.5872 6,12.938 L6,14.2616 C6,14.6488 5.7888,15.004 5.4492,15.1896 L1.8808,17.136 C0.7204,17.7696 0,18.9832 0,20.3048 L0,22 L17.6,22 L18.4,22 L24,22 L24,20.5212 C24,19.2844 23.3128,18.1732 22.2068,17.62 Z M17.6,21.2 L0.8,21.2 L0.8,20.3048 C0.8,19.2764 1.3608,18.3312 2.2636,17.8392 L5.832,15.8928 C6.4292,15.5668 6.8,14.9416 6.8,14.262 L6.8,12.6544 L6.7068,12.5432 C6.6972,12.5316 5.7168,11.3456 5.3428,9.7172 L5.3064,9.5588 L5.17,9.4708 C4.9384,9.3212 4.8,9.0704 4.8,8.8 L4.8,7.2 C4.8,6.9756 4.8952,6.7664 5.068,6.61 L5.2,6.4912 L5.2,4 L5.1964,3.9476 C5.1952,3.9368 5.0592,2.828 5.8384,1.9392 C6.5012,1.1832 7.6324,0.8 9.2,0.8 C10.762,0.8 11.8908,1.1804 12.5544,1.9312 C12.8844,2.304 13.0504,2.7204 13.1332,3.078 C13.1396,3.106 13.1456,3.1336 13.1512,3.1612 C13.1568,3.1896 13.1628,3.218 13.1672,3.2452 C13.1724,3.2764 13.1768,3.306 13.1812,3.3356 C13.1844,3.3568 13.1876,3.3784 13.19,3.3988 C13.196,3.4484 13.2008,3.4964 13.204,3.5408 C13.2044,3.5444 13.2044,3.5476 13.2044,3.5512 C13.2072,3.5944 13.2092,3.6352 13.2104,3.6724 C13.2104,3.6796 13.2104,3.6856 13.2108,3.6928 C13.2116,3.726 13.2116,3.7576 13.2112,3.7852 C13.2112,3.7892 13.2112,3.7932 13.2112,3.7972 C13.2096,3.8912 13.2032,3.9472 13.2032,3.9484 L13.2,6.4912 L13.332,6.6104 C13.5048,6.7664 13.6,6.9756 13.6,7.2 L13.6,8.8 C13.6,9.1492 13.3712,9.4548 13.0312,9.5596 L12.832,9.6208 L12.768,9.8188 C12.5004,10.6512 12.1192,11.42 11.6344,12.104 C11.5156,12.2724 11.4,12.4216 11.2996,12.5356 L11.2,12.6492 L11.2,14.2992 C11.2,14.4004 11.21,14.4996 11.2256,14.5972 C11.2288,14.618 11.2344,14.638 11.2384,14.6588 C11.254,14.7392 11.2748,14.818 11.3004,14.8948 C11.3064,14.9128 11.3128,14.93 11.3196,14.948 C11.3508,15.0316 11.3872,15.1124 11.4296,15.19 C11.4344,15.1988 11.4388,15.208 11.4436,15.2168 C11.5016,15.3192 11.5684,15.4164 11.6452,15.506 L11.7364,15.6184 L11.752,15.6184 C11.8892,15.7536 12.0468,15.8712 12.226,15.9608 L16.0472,17.8712 C17.0052,18.3496 17.6,19.312 17.6,20.3828 L17.6,21.2 Z M23.2,21.2 L18.4,21.2 L18.4,20.3828 C18.4,19.0072 17.6356,17.7708 16.4056,17.1556 L13.6624,15.7836 C13.73,15.6292 13.7388,15.4524 13.6796,15.282 C13.5816,15 13.3256,14.818 13.0276,14.818 L12.1408,14.818 C12.1224,14.7856 12.1104,14.75 12.0956,14.7156 C12.0756,14.6696 12.052,14.6244 12.0388,14.576 C12.0144,14.4872 12,14.3944 12,14.2992 L12,12.9468 C12.0916,12.8348 12.188,12.7072 12.2876,12.5664 C12.7832,11.8664 13.1804,11.0872 13.4692,10.2468 C14.0336,9.988 14.4,9.43 14.4,8.8 L14.4,7.2 C14.4,6.8148 14.256,6.4416 14,6.15 L14,4.0224 C14.0104,3.9224 14.0328,3.5948 13.9664,3.1668 C14.4816,2.9644 15.0588,2.86 15.6824,2.8548 C19.6188,2.8872 19.7624,6.7792 19.7664,6.9432 C19.8252,9.9764 21.6648,12.914 22.4532,14.036 C22.5208,14.132 22.5412,14.2528 22.5088,14.3668 C22.4904,14.4324 22.4376,14.5516 22.2948,14.6128 C21.6228,14.902 20.7112,14.82 20.6644,14.818 L17.9112,14.818 C17.654,14.818 17.4196,14.9488 17.284,15.1676 C17.1488,15.3856 17.136,15.652 17.2496,15.8808 C17.3748,16.1332 17.596,16.4704 17.9596,16.6516 L21.8584,18.3404 C22.686,18.7584 23.2,19.5928 23.2,20.5212 L23.2,21.2 Z" id="path-1"></path>
    </defs>
    <g id="icon/ic-user" stroke="none" stroke-width="1" fill="none" fill-rule="evenodd">
        <g id="-g-ic-user" transform="translate(0.000000, 1.000000)">
            <rect id="bound" x="0" y="0" width="24" height="24"></rect>
            <mask id="mask-2" fill="white">
                <use xlink:href="#path-1"></use>
            </mask>
            <use id="Shape" fill="#789CA8" fill-rule="nonzero" xlink:href="#path-1"></use>
        </g>
    </g>
</svg>